<svg width="30" height="32" viewBox="0 0 30 32" fill="none" xmlns="http://www.w3.org/2000/svg">
<path d="M4.60135 11.8856H8.81461V16.1312C8.81461 16.8441 9.38431 17.4182 10.0917 17.4182C10.7992 17.4182 11.3689 16.8441 11.3689 16.1312V11.8856H15.5821C16.2896 11.8856 16.8593 11.3115 16.8593 10.5986C16.8593 9.88575 16.2896 9.31167 15.5821 9.31167H11.3689V5.05971C11.3689 4.34684 10.7992 3.77277 10.0917 3.77277C9.38431 3.77277 8.81461 4.34684 8.81461 5.05971V9.30537H4.60135C3.89392 9.30537 3.32422 9.87944 3.32422 10.5923C3.32422 11.3052 3.90018 11.8856 4.60135 11.8856Z" fill="#AAAAAA"/>
<path d="M28.7291 0.580627H22.5626C21.8551 0.580627 21.2854 1.15471 21.2854 1.86757V19.582H1.27713C0.569699 19.582 0 20.1561 0 20.8689C0 21.5818 0.569699 22.1559 1.27713 22.1559H22.5563C23.2637 22.1559 23.8334 21.5818 23.8334 20.8689V3.16082H28.7228C29.4303 3.16082 30 2.58675 30 1.87388C30.0062 1.16101 29.4303 0.580627 28.7291 0.580627Z" fill="#AAAAAA"/>
<path d="M7.04934 22.8246C4.66412 22.8246 2.72339 24.7676 2.72339 27.1585C2.72339 29.5495 4.66412 31.4925 7.04934 31.4925C9.43456 31.4925 11.3753 29.5495 11.3753 27.1585C11.3753 24.7676 9.43456 22.8246 7.04934 22.8246ZM7.04934 28.9186C6.07272 28.9186 5.27764 28.13 5.27764 27.1585C5.27764 26.187 6.07272 25.3984 7.04934 25.3984C8.02597 25.3984 8.82104 26.187 8.82104 27.1585C8.82104 28.13 8.02597 28.9186 7.04934 28.9186Z" fill="#AAAAAA"/>
<path d="M18.1302 22.8246C15.7449 22.8246 13.8042 24.7676 13.8042 27.1585C13.8042 29.5495 15.7449 31.4925 18.1302 31.4925C20.5154 31.4925 22.4561 29.5495 22.4561 27.1585C22.4561 24.7676 20.5154 22.8246 18.1302 22.8246ZM18.1302 28.9186C17.1535 28.9186 16.3585 28.13 16.3585 27.1585C16.3585 26.187 17.1535 25.3984 18.1302 25.3984C19.1068 25.3984 19.9019 26.187 19.9019 27.1585C19.9019 28.13 19.1068 28.9186 18.1302 28.9186Z" fill="#AAAAAA"/>
</svg>
