<svg width="30" height="32" viewBox="0 0 30 32" fill="none" xmlns="http://www.w3.org/2000/svg">
<path d="M14.9969 17.0597C19.398 17.0597 23.0401 13.4449 23.0401 8.83967C23.0401 4.23442 19.398 0.550232 14.9969 0.550232C10.5957 0.550232 6.95361 4.16503 6.95361 8.77027C6.95361 13.3755 10.5957 17.0597 14.9969 17.0597ZM14.9969 3.11781C18.0575 3.11781 20.5488 5.68539 20.5488 8.77658C20.5488 11.8678 18.0575 14.429 14.9969 14.429C11.9363 14.429 9.44494 11.8615 9.44494 8.77027C9.44494 5.67908 11.9363 3.11781 14.9969 3.11781Z" fill="#AAAAAA"/>
<path d="M20.4203 17.8483C19.9123 17.7158 19.3981 17.8483 19.0798 18.2457L14.9969 23.0465L10.9141 18.2457C10.5958 17.8483 10.0204 17.7221 9.57356 17.8483C3.76454 19.8229 0 24.6868 0 30.1437C0 30.8691 0.575393 31.4621 1.27933 31.4621H28.7207C29.4246 31.4621 30 30.8691 30 30.1437C29.9939 24.6868 26.2293 19.8229 20.4203 17.8483ZM2.61375 28.8946C3.12793 25.2798 5.68047 22.1886 9.63477 20.6114L14.1032 25.8728C14.5501 26.4658 15.505 26.4658 15.9518 25.8728L20.4203 20.6114C24.3134 22.1886 26.9333 25.3429 27.4413 28.8946H2.61375Z" fill="#AAAAAA"/>
</svg>
